<svg xmlns="http://www.w3.org/2000/svg" viewBox="0 0 750.5 155.75"><defs><style>.cls-1,.cls-2{fill:#243531;}.cls-2{font-size:69.66px;font-family:AkzidenzGroteskBQ-LigExt, Akzidenz-Grotesk BQ Light Exten;}.cls-3{letter-spacing:-0.03em;}.cls-4{letter-spacing:-0.03em;}.cls-5{letter-spacing:-0.04em;}</style></defs><g id="Layer_2" data-name="Layer 2"><g id="Layer_1-2" data-name="Layer 1"><path class="cls-1" d="M662.22,132.48h-596A66.24,66.24,0,0,1,66.24,0h596a66.24,66.24,0,1,1,0,132.48ZM66.24,3a63.24,63.24,0,0,0,0,126.48h596A63.24,63.24,0,1,0,662.22,3Z"/><path class="cls-1" d="M750.5,91a64.94,64.94,0,0,1-64.74,64.74h-596a64.91,64.91,0,0,1-57-34.17A64.16,64.16,0,0,0,66.24,131h596a64.66,64.66,0,0,0,57-95.32A64.85,64.85,0,0,1,750.5,91Z"/><text class="cls-2" transform="translate(29.05 91.01)">UR<tspan class="cls-3" x="121.91" y="0">B</tspan><tspan x="183.36" y="0">AN </tspan><tspan class="cls-4" x="322.75" y="0">F</tspan><tspan x="372.91" y="0">OR</tspan><tspan class="cls-5" x="497.75" y="0">A</tspan><tspan x="549.92" y="0">GE</tspan></text></g></g></svg>