<svg xmlns="http://www.w3.org/2000/svg" viewBox="0 0 750.5 155.75"><defs><style>.cls-1{fill:#fefcf3;}</style></defs><g id="Layer_2" data-name="Layer 2"><g id="Layer_1-2" data-name="Layer 1"><path class="cls-1" d="M662.22,132.48h-596A66.24,66.24,0,0,1,66.24,0h596a66.24,66.24,0,1,1,0,132.48ZM66.24,3a63.24,63.24,0,0,0,0,126.48h596A63.24,63.24,0,1,0,662.22,3Z"/><path class="cls-1" d="M750.5,91a64.94,64.94,0,0,1-64.74,64.74h-596a64.91,64.91,0,0,1-57-34.17A64.16,64.16,0,0,0,66.24,131h596a64.66,64.66,0,0,0,57-95.32A64.85,64.85,0,0,1,750.5,91Z"/><path class="cls-1" d="M81.43,83.42c-2.86,4.67-7.18,6.76-12.33,7.94a41,41,0,0,1-9.13.91A45.92,45.92,0,0,1,47.85,90.8,17,17,0,0,1,35.8,80.22c-1.18-3.21-1.25-6.55-1.25-10V41.84h4.53V68.3c0,4.6-.21,9.34,2.64,13.31,2.51,3.48,7.6,6.2,16.65,6.2,11.08,0,16.51-2.16,19.44-7.25,1.67-2.92,2.08-6.13,2.08-12.74v-26h4.46V71.3C84.35,73.11,84.49,78.54,81.43,83.42Z"/><path class="cls-1" d="M142.45,91,123,69.07h-22.5V91H95.78V41.84h34c1.18,0,2.36,0,3.55.07,2,.06,7.8.34,11.28,5.64a14.41,14.41,0,0,1,2.16,7.8,13,13,0,0,1-5,10.59c-3.7,2.71-8.15,2.92-12.47,3.13L149.07,91Zm-4.59-43.53c-2.44-1.6-5.16-1.6-8-1.6H100.52v19h26.4c1.11,0,2.16,0,3.27-.07,4.11-.21,8.22-.9,10.31-5a11,11,0,0,0,1.12-4.74C141.62,53.89,141.27,49.78,137.86,47.48Z"/><path class="cls-1" d="M205.78,88.3c-3.28,2.36-7,2.71-10.8,2.71H156.67V41.84h38.52a12.57,12.57,0,0,1,10.73,5.22,12.34,12.34,0,0,1,2.3,7.1,11.09,11.09,0,0,1-.49,3.49,10.07,10.07,0,0,1-4.11,5.71,11.92,11.92,0,0,1-4,1.6,16.12,16.12,0,0,1,3.55.77c5,1.88,7.52,6.75,7.52,11.91C210.72,79.31,210.44,85,205.78,88.3Zm-4-38.73c-2.23-3.49-5.85-3.76-9.62-3.76H161.48V63.22h30c3.62,0,7.17-.28,9.75-3.34a7.87,7.87,0,0,0,1.88-5.44A9.21,9.21,0,0,0,201.81,49.57Zm2.16,22c-2.93-4-8.57-4.18-12.89-4.18h-29.6V86.9h33.57c3.76,0,7.52-.76,9.54-4.45a10.23,10.23,0,0,0,1.26-4.81A10.61,10.61,0,0,0,204,71.58Z"/><path class="cls-1" d="M262.07,91l-6.34-12.74H224L217.77,91h-5l24.24-49.17h5.29L267.15,91ZM239.71,46.22l-13.8,28.15h27.87Z"/><path class="cls-1" d="M319.89,91,277.74,48.1V91h-4.38V41.84h4.38L319.89,85V41.84h4.38V91Z"/><path class="cls-1" d="M362.39,45.88V63.36h36.22v4.25H362.39V91h-4.81V41.84h45.28v4Z"/><path class="cls-1" d="M457.33,82.24c-7.94,9.54-19.78,10.1-23.61,10.1s-18.6-.7-25.63-13.31a26.48,26.48,0,0,1-1.19-22.78c4.6-11,15.81-16,27.17-16,4,0,17.55.63,24.93,12.33a26,26,0,0,1,4,13.66A25.49,25.49,0,0,1,457.33,82.24Zm-.28-21.53a19.55,19.55,0,0,0-9.68-13,29.56,29.56,0,0,0-14.84-3.21c-2,.07-8.63.56-14,4.53A21.38,21.38,0,0,0,410,66.56a23.39,23.39,0,0,0,1.6,8.43c4.94,12.47,18.88,13.17,22.36,13.17,2.44,0,9.47-.21,15.53-4.74,7.66-5.78,8.08-14.35,8.08-17.41A19,19,0,0,0,457.05,60.71Z"/><path class="cls-1" d="M518.29,91,498.85,69.07h-22.5V91h-4.73V41.84h34c1.19,0,2.37,0,3.55.07,2,.06,7.81.34,11.29,5.64a14.41,14.41,0,0,1,2.16,7.8,13,13,0,0,1-5,10.59c-3.69,2.71-8.15,2.92-12.47,3.13L524.91,91Zm-4.6-43.53c-2.44-1.6-5.15-1.6-7.94-1.6h-29.4v19h26.41c1.11,0,2.15,0,3.27-.07,4.11-.21,8.22-.9,10.31-5a11.06,11.06,0,0,0,1.11-4.74C517.45,53.89,517.1,49.78,513.69,47.48Z"/><path class="cls-1" d="M576.46,91l-6.34-12.74H538.43L532.16,91h-4.95l24.24-49.17h5.3L581.54,91ZM554.1,46.22,540.31,74.37h27.86Z"/><path class="cls-1" d="M632,91V81a20.23,20.23,0,0,1-3.83,5c-2.58,2.37-8.92,6.48-18.39,6.48a31,31,0,0,1-8.43-1.12,25,25,0,0,1-16-11.91A26.84,26.84,0,0,1,588,49.64c3.13-3.69,10-9.34,22-9.34,2.51,0,12,.35,19.08,6.06a26.34,26.34,0,0,1,5.92,7L630.45,56a16.36,16.36,0,0,0-2.23-3.42c-4.53-5.64-11.7-7.8-18.6-7.8a25.06,25.06,0,0,0-9.06,1.6c-8.56,3.28-13.44,11-13.44,20.06a21.81,21.81,0,0,0,4.74,13.94c2.64,3.13,8.29,7.66,18.32,7.66a26.69,26.69,0,0,0,7.24-1c5.85-1.74,11.29-5.92,13.44-11.77A21.3,21.3,0,0,0,632,69.49H605.86V65.31h30.37V91Z"/><path class="cls-1" d="M647.17,91V41.84h47.09v4H652V63.15h39.07v4.18H652V86.9h44.3V91Z"/></g></g></svg>